<?xml version="1.0" standalone="no"?>
<!DOCTYPE svg PUBLIC "-//W3C//DTD SVG 20010904//EN"
 "http://www.w3.org/TR/2001/REC-SVG-20010904/DTD/svg10.dtd">
<svg version="1.0" xmlns="http://www.w3.org/2000/svg"
 width="500.000000pt" height="500.000000pt" viewBox="0 0 500.000000 500.000000"
 preserveAspectRatio="xMidYMid meet">

<g transform="translate(0.000000,500.000000) scale(0.100000,-0.100000)"
fill="#000000" stroke="none">
<path d="M2345 4370 c-22 -4 -78 -13 -125 -20 -139 -21 -410 -122 -572 -213
-24 -13 -65 -37 -93 -52 -27 -15 -87 -52 -133 -81 -72 -47 -89 -54 -132 -54
l-50 0 -25 -56 c-31 -69 -31 -71 0 -144 26 -62 32 -121 15 -164 -11 -31 -68
-61 -132 -70 -58 -9 -117 19 -193 88 -66 61 -89 59 -93 -8 -2 -33 4 -66 19
-105 28 -68 145 -281 206 -374 25 -37 66 -109 91 -160 l47 -92 2 -265 c0 -146
4 -290 7 -320 3 -30 8 -109 11 -175 7 -139 36 -292 74 -385 29 -71 121 -231
154 -267 19 -21 19 -24 4 -41 -12 -13 -17 -36 -17 -75 l0 -57 -91 0 c-78 0
-100 -4 -160 -30 -76 -32 -129 -65 -129 -81 0 -5 22 -23 49 -39 27 -17 60 -48
75 -70 l27 -41 -33 -45 c-99 -138 -118 -167 -118 -189 0 -38 17 -39 93 -4 l72
34 165 0 c155 0 167 1 202 23 55 34 86 77 106 142 16 58 18 59 67 74 l50 15
70 -77 c192 -209 319 -318 464 -397 50 -27 130 -72 178 -98 92 -52 111 -54
162 -18 14 10 70 41 123 70 237 125 292 170 555 451 l61 66 47 -12 c57 -15 59
-16 75 -79 15 -53 64 -116 114 -143 25 -14 60 -17 191 -17 l160 0 78 -34 c116
-51 128 -21 42 100 -25 35 -57 81 -72 102 l-26 38 29 42 c17 23 49 52 72 65
70 39 55 62 -83 124 -51 23 -73 27 -152 28 l-93 0 0 53 c0 31 -6 61 -15 74
-14 20 -12 26 24 80 58 88 127 221 150 289 46 137 73 479 71 868 l-2 209 48
96 c26 53 63 121 84 151 56 85 196 339 219 398 34 85 25 152 -19 152 -9 0 -34
-18 -55 -41 -22 -22 -64 -54 -93 -70 -55 -32 -86 -33 -169 -8 -77 24 -94 109
-47 231 l27 67 -29 58 c-29 58 -29 58 -78 61 -39 3 -66 14 -140 61 -142 90
-260 153 -396 214 -199 88 -296 115 -517 147 -81 11 -436 12 -498 0z m442
-224 l-2 -104 -47 2 c-60 3 -78 18 -78 66 0 47 39 85 78 75 22 -5 24 -3 20 24
-3 22 0 31 11 34 9 3 17 5 18 6 1 0 1 -46 0 -103z m-467 45 c0 -31 14 -49 25
-31 10 16 54 11 63 -7 5 -10 13 -36 17 -58 4 -22 12 -43 18 -47 8 -5 6 -8 -5
-8 -9 0 -23 -2 -30 -5 -11 -4 -13 2 -10 27 5 50 -13 90 -41 86 -20 -3 -22 -8
-19 -53 1 -27 7 -52 12 -53 17 -6 0 -22 -22 -22 -12 0 -18 5 -15 13 8 21 -20
161 -33 165 -9 3 -9 7 1 13 26 16 39 9 39 -20z m230 -37 c6 -14 10 -40 10 -59
0 -18 6 -36 13 -39 6 -3 0 -4 -16 -2 -15 2 -30 -1 -33 -5 -8 -14 -50 -10 -63
5 -17 21 -3 44 35 58 26 9 34 17 32 33 -4 28 -38 32 -45 6 -7 -26 -23 -28 -23
-2 0 22 13 29 53 30 21 1 30 -5 37 -25z m578 11 c53 -16 57 -20 45 -52 -6 -16
-8 -15 -13 7 -9 37 -56 41 -70 5 -16 -41 -13 -48 19 -42 25 5 28 4 23 -19 -5
-26 -22 -33 -22 -9 0 31 -36 16 -47 -20 -9 -29 -9 -35 4 -35 8 0 12 -4 8 -9
-3 -6 -18 -5 -37 1 -18 6 -27 13 -20 16 14 4 55 139 48 158 -7 18 -1 18 62 -1z
m-210 -11 c12 -8 22 -24 22 -36 0 -18 -4 -20 -46 -13 l-45 6 3 -33 c3 -31 5
-33 41 -32 43 1 47 -3 12 -16 -56 -21 -106 30 -84 88 19 50 56 65 97 36z
m-840 -22 c2 -7 -3 -12 -12 -12 -9 0 -16 7 -16 16 0 17 22 14 28 -4z m166 -7
c9 -9 20 -33 26 -55 6 -21 16 -41 23 -43 7 -3 1 -9 -13 -15 -24 -9 -25 -7 -35
41 -11 55 -34 79 -58 59 -12 -10 -13 -21 -4 -55 5 -23 14 -48 20 -54 6 -9 6
-13 -1 -13 -6 0 -18 -3 -28 -7 -11 -4 -15 -3 -11 4 9 15 -14 114 -25 107 -4
-3 -8 -1 -8 4 0 9 64 39 87 41 6 1 19 -6 27 -14z m-220 -77 c16 -40 35 -79 44
-85 13 -11 12 -14 -9 -22 -19 -7 -25 -5 -27 8 -10 52 -57 151 -71 151 -13 1
-13 3 3 15 10 8 22 12 26 10 3 -2 19 -37 34 -77z m85 -8 c12 -33 27 -60 34
-60 15 0 -13 -20 -29 -20 -5 0 -16 23 -23 51 -7 28 -20 53 -27 56 -12 4 -11 8
3 19 10 7 19 14 19 14 1 0 11 -27 23 -60z m1111 31 c0 -5 -7 -25 -15 -44 -22
-54 -20 -77 9 -77 19 0 27 9 40 41 9 22 14 45 11 50 -4 5 3 9 14 9 26 0 26 -7
1 -64 -10 -25 -17 -53 -14 -61 8 -19 -10 -19 -29 0 -8 8 -17 12 -20 9 -12 -12
-47 8 -52 29 -3 12 1 39 10 60 9 21 13 42 10 47 -4 6 3 10 14 10 12 0 21 -4
21 -9z m166 -47 c-4 -10 1 -22 11 -30 16 -13 16 -14 -7 -9 -22 5 -28 1 -43
-30 -23 -48 -22 -65 5 -65 16 0 19 -3 11 -11 -14 -14 -49 -3 -57 18 -4 9 3 35
14 58 11 23 18 49 14 58 -5 14 2 18 50 26 4 0 5 -6 2 -15z m-1418 -14 c40 -37
22 -118 -26 -121 -33 -3 -47 2 -64 23 -56 65 28 156 90 98z m-143 -61 c11 -17
-3 -23 -20 -9 -12 10 -18 10 -30 0 -21 -17 -19 -56 5 -80 28 -28 57 -25 74 8
11 19 15 22 16 10 1 -50 -80 -76 -115 -38 -38 42 -11 120 41 120 13 0 26 -5
29 -11z m960 -15 c121 -22 183 -46 364 -143 47 -25 263 -178 376 -267 174
-136 252 -167 425 -168 92 -1 97 0 163 37 37 20 74 37 82 37 28 0 15 -44 -38
-130 -211 -339 -224 -373 -237 -619 -4 -91 -7 -169 -5 -175 2 -6 6 -87 10
-179 7 -225 -7 -361 -52 -502 -41 -129 -48 -143 -124 -257 -85 -126 -88 -128
-178 -128 -42 0 -102 -6 -133 -14 -64 -15 -64 -15 -7 54 50 60 124 218 146
311 28 122 23 427 -11 652 -26 176 -55 316 -76 371 -6 16 -17 77 -24 135 l-14
106 -49 45 c-119 109 -460 316 -687 418 l-119 53 -56 -22 c-227 -90 -642 -338
-777 -464 -21 -20 -31 -51 -44 -140 -6 -49 -18 -110 -26 -135 -20 -68 -51
-209 -58 -265 -4 -27 -13 -93 -21 -145 -8 -52 -20 -154 -26 -226 -26 -282 38
-538 175 -706 l46 -57 -33 10 c-17 5 -81 13 -141 18 -123 9 -108 0 -195 126
-61 89 -94 154 -127 251 -47 141 -53 217 -47 584 8 507 10 498 -256 933 -24
38 -40 75 -37 83 8 21 37 17 76 -9 19 -13 57 -32 84 -42 43 -17 59 -17 155 -7
156 16 224 45 356 153 98 79 298 221 385 273 259 156 482 200 755 150z m700
14 c28 -13 44 -53 27 -70 -7 -7 -21 -4 -45 11 -43 26 -43 26 -51 -5 -9 -32 8
-54 42 -54 20 0 23 -3 15 -11 -18 -18 -72 8 -80 39 -8 35 8 74 37 89 30 15 24
15 55 1z m136 -8 c6 0 0 -14 -12 -32 -17 -24 -20 -33 -10 -36 31 -10 53 -43
46 -70 -16 -65 -81 -83 -130 -38 l-27 25 52 67 c28 38 48 74 45 82 -4 10 0 12
11 8 8 -3 20 -6 25 -6z m-1923 -62 c19 -19 14 -30 -9 -18 -15 9 -24 8 -35 -1
-25 -21 -15 -29 35 -29 62 0 81 -18 57 -55 -9 -14 -23 -25 -30 -25 -8 0 -16
-5 -18 -11 -2 -6 -12 -1 -22 10 -19 21 -19 21 10 15 21 -4 34 -1 43 10 19 23
7 31 -46 31 -33 0 -49 5 -57 18 -9 15 -6 22 17 43 32 27 38 29 55 12z m-137
-44 c12 -15 11 -16 -7 -10 -14 4 -29 0 -45 -13 l-24 -19 24 -26 c19 -20 28
-23 42 -15 12 6 16 15 12 27 -6 15 -4 15 15 -2 27 -23 28 -36 4 -29 -10 2 -24
-2 -30 -10 -9 -11 -6 -19 16 -40 26 -25 29 -26 51 -11 17 12 22 24 19 45 -5
34 2 37 20 8 13 -20 10 -25 -35 -65 -52 -47 -62 -52 -59 -30 1 19 -93 128
-105 121 -26 -16 -4 15 33 47 49 43 51 44 69 22z m2180 -72 c15 -13 22 -30 22
-52 0 -66 -82 -95 -122 -44 -28 36 -26 50 8 85 34 34 59 37 92 11z m74 -112
c-36 -36 -65 -72 -65 -79 0 -11 -5 -10 -20 4 -21 19 -27 37 -11 33 5 -2 37 21
70 50 41 36 58 57 54 68 -5 14 -3 14 15 3 21 -13 20 -15 -43 -79z m-1132 -169
c227 -97 579 -308 689 -413 31 -30 36 -41 47 -123 7 -49 21 -121 31 -160 30
-112 50 -205 60 -280 5 -38 16 -122 25 -185 28 -193 20 -453 -17 -570 -20 -66
-99 -215 -135 -255 -20 -23 -32 -32 -28 -20 36 104 48 178 49 290 0 143 -17
219 -78 350 -143 304 -442 481 -781 462 -447 -25 -787 -405 -762 -852 3 -55
13 -125 21 -155 31 -111 31 -109 -4 -70 -17 19 -54 81 -81 136 -53 108 -72
186 -84 334 -7 85 9 340 25 415 5 22 14 78 19 125 6 46 26 148 45 225 19 77
40 177 46 223 12 82 13 83 64 126 104 88 238 173 481 306 61 34 251 123 273
129 2 1 44 -17 95 -38z m-253 -975 c0 -2 -17 -15 -37 -28 -21 -12 -61 -41 -88
-64 -40 -32 -62 -42 -102 -47 -28 -3 -70 -15 -92 -27 -23 -11 -41 -18 -41 -15
0 10 125 97 175 123 83 41 185 74 185 58z m249 -29 c72 -11 87 -17 104 -39
l20 -27 -64 -68 c-35 -38 -73 -88 -84 -112 l-19 -44 -136 7 c-151 8 -143 4
-196 99 -34 63 -27 76 74 145 74 51 78 52 147 52 38 -1 108 -6 154 -13z m225
-11 c98 -43 202 -123 185 -141 -3 -2 -31 9 -64 25 -33 16 -92 39 -131 52 -54
17 -75 30 -87 50 -26 44 15 50 97 14z m76 -125 c52 -22 101 -48 108 -58 30
-41 122 -195 122 -205 0 -5 -26 -57 -57 -114 -41 -76 -61 -103 -72 -100 -9 3
-52 10 -96 16 -73 9 -184 34 -189 42 -24 32 -83 143 -105 195 l-28 69 20 43
c11 24 46 70 78 103 68 72 72 72 219 9z m-433 -171 l94 0 15 -37 c29 -69 48
-107 76 -152 15 -25 28 -54 28 -65 0 -25 -66 -112 -152 -199 -77 -78 -89 -81
-172 -32 -55 32 -163 130 -180 164 -21 39 -5 115 46 218 47 94 73 117 122 108
16 -3 71 -5 123 -5z m774 -168 c39 -98 47 -315 16 -409 -13 -40 -32 -50 -97
-52 l-35 -1 -32 103 c-64 203 -63 188 -18 270 22 40 49 90 60 113 l20 41 38
-19 c21 -11 42 -30 48 -46z m-1441 -9 c-1 -13 -29 -59 -30 -48 0 21 13 55 21
55 5 0 9 -3 9 -7z m46 -130 c21 -43 37 -81 36 -86 -6 -21 -4 -205 2 -224 7
-21 4 -23 -31 -23 -22 0 -44 -5 -50 -11 -9 -9 -14 -2 -22 27 -42 161 -42 223
5 352 9 23 17 42 19 42 2 0 21 -35 41 -77z m299 -13 c4 -11 39 -52 78 -91 52
-52 93 -81 149 -107 68 -33 78 -42 92 -77 22 -56 35 -123 36 -171 l0 -41 -111
-38 c-93 -32 -122 -37 -190 -37 -48 1 -90 7 -106 16 -80 42 -180 201 -190 301
-3 29 -2 82 1 117 l7 65 72 28 c91 36 140 54 149 55 4 0 10 -9 13 -20z m1067
-393 c-39 -85 -98 -170 -161 -231 -46 -45 -53 -49 -78 -40 -24 8 -28 15 -31
54 -3 43 1 49 64 120 36 41 76 91 87 111 19 34 26 38 82 46 33 5 61 8 63 7 2
-1 -10 -31 -26 -67z m-655 -157 c36 -21 70 -41 77 -43 17 -6 -8 -31 -67 -68
-29 -18 -69 -48 -89 -65 -42 -37 -84 -48 -179 -48 -91 0 -148 33 -178 103 -35
82 -32 88 45 83 80 -5 163 10 251 47 38 16 69 29 71 30 2 1 33 -17 69 -39z
m363 -45 c0 -29 -5 -37 -27 -46 -49 -19 -173 -39 -239 -39 l-64 0 43 39 c37
33 50 39 107 45 36 4 88 13 115 21 68 19 65 19 65 -20z m-1042 -51 c92 -12 56
-19 -75 -16 -184 5 -287 -23 -383 -106 -39 -33 -57 -30 -22 4 92 93 287 141
480 118z m1497 -4 c33 -5 85 -19 115 -30 60 -22 150 -85 158 -110 3 -8 -15 1
-39 21 -106 87 -192 111 -378 107 -77 -2 -137 0 -133 4 18 17 192 22 277 8z
m-1268 -206 c123 -109 177 -149 283 -214 76 -46 90 -51 130 -47 78 7 245 120
445 301 l50 46 94 0 94 0 -64 -67 c-106 -112 -293 -246 -508 -363 l-114 -62
-86 44 c-211 107 -421 254 -536 374 -36 38 -65 70 -65 72 0 1 40 2 89 2 l89 0
99 -86z m408 40 l60 -35 -90 4 c-49 3 -121 13 -160 23 l-70 19 77 5 c43 3 80
9 84 13 14 14 40 6 99 -29z m-264 -33 c199 -70 397 -59 624 35 18 7 19 6 6
-10 -60 -73 -320 -249 -369 -249 -35 0 -197 102 -302 189 -44 37 -80 69 -80
72 0 5 0 5 121 -37z m-731 1 c0 -14 -54 -60 -83 -71 -16 -6 -84 -11 -153 -11
-99 0 -134 -4 -176 -20 -52 -19 -52 -19 -32 0 27 27 110 41 235 38 101 -2 109
-1 148 25 22 15 41 32 41 37 0 6 5 10 10 10 6 0 10 -4 10 -8z m2016 -13 c38
-42 69 -50 212 -53 101 -1 147 -6 175 -18 20 -10 37 -21 37 -27 0 -5 -15 -2
-32 7 -25 12 -72 18 -183 22 -135 4 -154 7 -188 28 -36 23 -67 62 -49 62 5 0
17 -9 28 -21z"/>
<path d="M2701 4156 c-7 -8 -11 -32 -9 -53 2 -31 7 -39 25 -41 26 -4 43 28 43
79 0 24 -4 29 -24 29 -13 0 -29 -6 -35 -14z"/>
<path d="M2498 4099 c-26 -15 -23 -41 5 -37 14 2 23 11 25 26 4 24 -4 27 -30
11z"/>
<path d="M2857 4143 c-15 -14 -6 -23 23 -23 20 0 30 5 30 15 0 15 -40 21 -53
8z"/>
<path d="M1885 4000 c-10 -17 4 -66 25 -85 23 -21 60 -11 60 16 0 37 -29 79
-55 79 -13 0 -27 -5 -30 -10z"/>
<path d="M3446 3931 c-3 -5 5 -16 19 -25 22 -15 26 -15 31 -2 3 8 3 20 -1 26
-8 12 -42 13 -49 1z"/>
<path d="M3547 3824 c-26 -38 -26 -58 0 -68 39 -15 90 57 63 89 -19 23 -35 18
-63 -21z"/>
<path d="M3672 3737 c-25 -26 -29 -59 -9 -75 19 -16 59 7 71 40 19 55 -21 78
-62 35z"/>
<path d="M2590 3305 l-13 -45 -53 0 c-30 0 -54 -4 -54 -10 0 -5 3 -10 8 -10 4
0 22 -13 40 -28 l33 -27 -16 -50 c-8 -27 -15 -52 -15 -53 0 -2 19 10 42 27 23
17 45 31 49 31 3 0 23 -14 44 -30 21 -17 39 -29 41 -27 2 2 -4 25 -12 52 l-15
50 33 28 c18 15 36 27 40 27 4 0 8 5 8 10 0 6 -24 10 -54 10 l-53 0 -13 45
c-7 25 -16 45 -20 45 -4 0 -13 -20 -20 -45z"/>
<path d="M2120 3026 l-13 -46 -61 0 -61 0 47 -40 47 -41 -15 -41 c-21 -60 -18
-62 30 -27 l45 32 39 -32 c22 -17 42 -31 45 -31 3 0 -2 23 -11 51 -18 57 -22
50 56 108 l27 20 -62 1 -61 0 -12 38 c-18 56 -26 58 -40 8z"/>
<path d="M3030 3026 l-13 -46 -61 0 -61 -1 23 -19 c13 -11 35 -27 48 -37 24
-18 24 -19 10 -68 -9 -27 -14 -50 -12 -52 1 -1 21 11 44 28 l42 31 42 -31 c23
-17 43 -29 45 -27 2 1 -4 22 -12 46 -8 23 -15 46 -15 50 0 4 18 20 40 35 22
15 40 32 40 36 0 5 -24 9 -54 9 -54 0 -55 0 -66 38 -18 56 -26 58 -40 8z"/>
<path d="M1869 2643 l-15 -48 -54 -5 -54 -5 42 -29 c23 -16 42 -31 42 -35 0
-3 -7 -28 -15 -54 -16 -52 -15 -52 42 -9 l33 24 42 -31 c23 -17 43 -29 45 -27
2 1 -4 22 -12 46 -8 23 -15 46 -15 50 0 4 19 20 42 36 l42 29 -55 5 c-53 5
-54 6 -67 45 -19 59 -27 60 -43 8z"/>
<path d="M3285 2668 c-21 -75 -24 -78 -79 -78 l-51 0 39 -33 c41 -35 42 -38
20 -116 -7 -24 -6 -23 40 8 l46 32 37 -30 c21 -17 41 -31 45 -31 4 0 1 19 -7
41 -21 59 -20 64 26 98 l41 30 -53 3 c-53 3 -54 4 -69 45 -20 54 -27 60 -35
31z"/>
</g>
</svg>
